<?xml version="1.0" standalone="no"?><svg xmlns:xlink="http://www.w3.org/1999/xlink" xmlns="http://www.w3.org/2000/svg" viewBox="0 0 2000 1250.0106004969514" preserveAspectRatio="xMaxYMax slice"><g transform="scale(1.6960795122075323)"><rect x="0" y="0" width="1179.2" height="737" fill="#ffffff"/><path d="M 0 73.7 A 73.7 73.7 0 0 1  73.7 0 L 0 73.7 A 73.7 73.7 0 0 0 73.7 0" fill="#ffc7ec"/><rect x="663.3000000000001" y="0" width="73.7" height="73.7" fill="#ffffff"/><rect x="884.4000000000001" y="0" width="73.7" height="73.7" fill="#ffffff"/><path d="M 921.25 36.85 A 36.85 36.85 0 0 1  958.1 0 L 921.25 36.85 A 36.85 36.85 0 0 0 958.1 0" fill="#ff5ec9"/><path d="M 884.4 36.85 A 36.85 36.85 0 0 1  921.25 73.7 L 884.4 36.85 A 36.85 36.85 0 0 0 921.25 73.7" fill="#ffe0f5"/><path d="M 147.4 73.7 A 73.7 73.7 0 0 1  221.10000000000002 147.4 L 147.4 73.7 A 73.7 73.7 0 0 0 221.10000000000002 147.4" fill="#ffeaf8"/><rect x="221.10000000000002" y="73.7" width="73.7" height="73.7" fill="#ffffff"/><path d="M 294.8 147.4 A 73.7 73.7 0 0 1  368.5 73.7 L 294.8 147.4 A 73.7 73.7 0 0 0 368.5 73.7" fill="#7b91ee"/><path d="M 368.5 147.4 A 73.7 73.7 0 0 1  442.2 73.7 L 368.5 147.4 A 73.7 73.7 0 0 0 442.2 73.7" fill="#fffcfe"/><rect x="442.20000000000005" y="73.7" width="73.7" height="73.7" fill="#ffffff"/><path d="M 442.2 110.55000000000001 A 36.85 36.85 0 0 1  479.05 73.7 L 442.2 110.55000000000001 A 36.85 36.85 0 0 0 479.05 73.7" fill="#e5eafc"/><path d="M 479.05 110.55000000000001 A 36.85 36.85 0 0 1  515.9 73.7 L 479.05 110.55000000000001 A 36.85 36.85 0 0 0 515.9 73.7" fill="#ffd9f2"/><path d="M 884.4 147.4 A 73.7 73.7 0 0 1  958.1 73.7 L 884.4 147.4 A 73.7 73.7 0 0 0 958.1 73.7" fill="#ffe7f7"/><rect x="73.7" y="147.4" width="73.7" height="73.7" fill="#ffffff"/><path d="M 110.55 147.4 A 36.85 36.85 0 0 1  147.4 184.25 L 110.55 147.4 A 36.85 36.85 0 0 0 147.4 184.25" fill="#ffc3eb"/><path d="M 110.55 221.1 A 36.85 36.85 0 0 1  147.4 184.25 L 110.55 221.1 A 36.85 36.85 0 0 0 147.4 184.25" fill="#5672e9"/><path d="M 294.8 221.10000000000002 A 73.7 73.7 0 0 1  368.5 147.4 L 294.8 221.10000000000002 A 73.7 73.7 0 0 0 368.5 147.4" fill="#ff9bde"/><path d="M 442.2 221.10000000000002 A 73.7 73.7 0 0 1  515.9 147.4 L 442.2 221.10000000000002 A 73.7 73.7 0 0 0 515.9 147.4" fill="#788fed"/><rect x="589.6" y="147.4" width="73.7" height="73.7" fill="#ffffff"/><path d="M 626.45 147.4 A 36.85 36.85 0 0 1  663.3000000000001 184.25 L 626.45 147.4 A 36.85 36.85 0 0 0 663.3000000000001 184.25" fill="#ff88d7"/><path d="M 663.3 147.4 A 73.7 73.7 0 0 1  737 221.10000000000002 L 663.3 147.4 A 73.7 73.7 0 0 0 737 221.10000000000002" fill="#ffb7e7"/><path d="M 810.7 221.10000000000002 A 73.7 73.7 0 0 1  884.4000000000001 147.4 L 810.7 221.10000000000002 A 73.7 73.7 0 0 0 884.4000000000001 147.4" fill="#788fee"/><rect x="884.4000000000001" y="147.4" width="73.7" height="73.7" fill="#ffffff"/><path d="M 921.25 221.1 A 36.85 36.85 0 0 1  958.1 184.25 L 921.25 221.1 A 36.85 36.85 0 0 0 958.1 184.25" fill="#ff65cc"/><rect x="958.1" y="147.4" width="73.7" height="73.7" fill="#ffffff"/><path d="M 994.95 184.25 A 36.85 36.85 0 0 1  1031.8 147.4 L 994.95 184.25 A 36.85 36.85 0 0 0 1031.8 147.4" fill="#4666e7"/><path d="M 958.1 184.25 A 36.85 36.85 0 0 1  994.95 221.1 L 958.1 184.25 A 36.85 36.85 0 0 0 994.95 221.1" fill="#ff75d1"/><path d="M 1031.8 147.4 A 73.7 73.7 0 0 1  1105.5 221.10000000000002 L 1031.8 147.4 A 73.7 73.7 0 0 0 1105.5 221.10000000000002" fill="#94a6f1"/><path d="M 147.4 221.1 A 73.7 73.7 0 0 1  221.10000000000002 294.8 L 147.4 221.1 A 73.7 73.7 0 0 0 221.10000000000002 294.8" fill="#ffd1f0"/><rect x="589.6" y="221.10000000000002" width="73.7" height="73.7" fill="#ffffff"/><rect x="663.3000000000001" y="221.10000000000002" width="73.7" height="73.7" fill="#ffffff"/><path d="M 700.15 257.95 A 36.85 36.85 0 0 1  737 294.8 L 700.15 257.95 A 36.85 36.85 0 0 0 737 294.8" fill="#eceffd"/><rect x="1031.8" y="221.10000000000002" width="73.7" height="73.7" fill="#ffffff"/><path d="M 1068.65 221.1 A 36.85 36.85 0 0 1  1105.5 257.95 L 1068.65 221.1 A 36.85 36.85 0 0 0 1105.5 257.95" fill="#bdc8f6"/><path d="M 1031.8 257.95 A 36.85 36.85 0 0 1  1068.6499999999999 294.8 L 1031.8 257.95 A 36.85 36.85 0 0 0 1068.6499999999999 294.8" fill="#ffcdee"/><path d="M 73.7 368.5 A 73.7 73.7 0 0 1  147.4 294.8 L 73.7 368.5 A 73.7 73.7 0 0 0 147.4 294.8" fill="#99aaf2"/><path d="M 221.1 368.5 A 73.7 73.7 0 0 1  294.8 294.8 L 221.1 368.5 A 73.7 73.7 0 0 0 294.8 294.8" fill="#5773e9"/><path d="M 294.8 368.5 A 73.7 73.7 0 0 1  368.5 294.8 L 294.8 368.5 A 73.7 73.7 0 0 0 368.5 294.8" fill="#3254e4"/><rect x="442.20000000000005" y="294.8" width="73.7" height="73.7" fill="#ffffff"/><path d="M 479.05 331.65 A 36.85 36.85 0 0 1  515.9 368.5 L 479.05 331.65 A 36.85 36.85 0 0 0 515.9 368.5" fill="#ffe8f7"/><rect x="515.9" y="294.8" width="73.7" height="73.7" fill="#ffffff"/><path d="M 515.9 331.65 A 36.85 36.85 0 0 1  552.75 368.5 L 515.9 331.65 A 36.85 36.85 0 0 0 552.75 368.5" fill="#e4e9fc"/><path d="M 552.75 331.65 A 36.85 36.85 0 0 1  589.6 368.5 L 552.75 331.65 A 36.85 36.85 0 0 0 589.6 368.5" fill="#ff78d2"/><path d="M 958.1 294.8 A 73.7 73.7 0 0 1  1031.8 368.5 L 958.1 294.8 A 73.7 73.7 0 0 0 1031.8 368.5" fill="#ff38bd"/><rect x="1031.8" y="294.8" width="73.7" height="73.7" fill="#ffffff"/><path d="M 1068.65 294.8 A 36.85 36.85 0 0 1  1105.5 331.65000000000003 L 1068.65 294.8 A 36.85 36.85 0 0 0 1105.5 331.65000000000003" fill="#ff43c0"/><path d="M 1068.65 368.5 A 36.85 36.85 0 0 1  1105.5 331.65 L 1068.65 368.5 A 36.85 36.85 0 0 0 1105.5 331.65" fill="#ff96dc"/><path d="M 0 368.5 A 73.7 73.7 0 0 1  73.7 442.2 L 0 368.5 A 73.7 73.7 0 0 0 73.7 442.2" fill="#5e79ea"/><rect x="221.10000000000002" y="368.5" width="73.7" height="73.7" fill="#ffffff"/><path d="M 221.1 368.5 A 36.85 36.85 0 0 1  257.95 405.35 L 221.1 368.5 A 36.85 36.85 0 0 0 257.95 405.35" fill="#ffe4f6"/><path d="M 257.95 405.35 A 36.85 36.85 0 0 1  294.8 442.20000000000005 L 257.95 405.35 A 36.85 36.85 0 0 0 294.8 442.20000000000005" fill="#5d79ea"/><path d="M 294.8 368.5 A 73.7 73.7 0 0 1  368.5 442.2 L 294.8 368.5 A 73.7 73.7 0 0 0 368.5 442.2" fill="#ff93db"/><rect x="1031.8" y="368.5" width="73.7" height="73.7" fill="#ffffff"/><path d="M 368.5 442.2 A 73.7 73.7 0 0 1  442.2 515.9 L 368.5 442.2 A 73.7 73.7 0 0 0 442.2 515.9" fill="#e7ebfc"/><rect x="737" y="442.20000000000005" width="73.7" height="73.7" fill="#ffffff"/><path d="M 737 515.9 A 36.85 36.85 0 0 1  773.85 479.05 L 737 515.9 A 36.85 36.85 0 0 0 773.85 479.05" fill="#aebcf4"/><path d="M 1031.8 442.2 A 73.7 73.7 0 0 1  1105.5 515.9 L 1031.8 442.2 A 73.7 73.7 0 0 0 1105.5 515.9" fill="#ff75d1"/><rect x="442.20000000000005" y="515.9" width="73.7" height="73.7" fill="#ffffff"/><path d="M 479.05 552.75 A 36.85 36.85 0 0 1  515.9 515.9 L 479.05 552.75 A 36.85 36.85 0 0 0 515.9 515.9" fill="#879bef"/><path d="M 442.2 589.6 A 36.85 36.85 0 0 1  479.05 552.75 L 442.2 589.6 A 36.85 36.85 0 0 0 479.05 552.75" fill="#ff45c1"/><path d="M 663.3 515.9 A 73.7 73.7 0 0 1  737 589.6 L 663.3 515.9 A 73.7 73.7 0 0 0 737 589.6" fill="#ffb5e6"/><rect x="737" y="515.9" width="73.7" height="73.7" fill="#ffffff"/><path d="M 737 515.9 A 36.85 36.85 0 0 1  773.85 552.75 L 737 515.9 A 36.85 36.85 0 0 0 773.85 552.75" fill="#637deb"/><path d="M 773.85 552.75 A 36.85 36.85 0 0 1  810.7 515.9 L 773.85 552.75 A 36.85 36.85 0 0 0 810.7 515.9" fill="#ffdbf3"/><path d="M 737 552.75 A 36.85 36.85 0 0 1  773.85 589.6 L 737 552.75 A 36.85 36.85 0 0 0 773.85 589.6" fill="#ffd4f1"/><path d="M 810.7 515.9 A 73.7 73.7 0 0 1  884.4000000000001 589.6 L 810.7 515.9 A 73.7 73.7 0 0 0 884.4000000000001 589.6" fill="#2e52e4"/><path d="M 884.4 515.9 A 73.7 73.7 0 0 1  958.1 589.6 L 884.4 515.9 A 73.7 73.7 0 0 0 958.1 589.6" fill="#f0f3fd"/><rect x="1031.8" y="515.9" width="73.7" height="73.7" fill="#ffffff"/><path d="M 1068.65 552.75 A 36.85 36.85 0 0 1  1105.5 515.9 L 1068.65 552.75 A 36.85 36.85 0 0 0 1105.5 515.9" fill="#fdfeff"/><path d="M 0 663.3000000000001 A 73.7 73.7 0 0 1  73.7 589.6 L 0 663.3000000000001 A 73.7 73.7 0 0 0 73.7 589.6" fill="#ff61ca"/><rect x="73.7" y="589.6" width="73.7" height="73.7" fill="#ffffff"/><path d="M 73.7 626.45 A 36.85 36.85 0 0 1  110.55000000000001 589.6 L 73.7 626.45 A 36.85 36.85 0 0 0 110.55000000000001 589.6" fill="#ffe3f6"/><path d="M 110.55 589.6 A 36.85 36.85 0 0 1  147.4 626.45 L 110.55 589.6 A 36.85 36.85 0 0 0 147.4 626.45" fill="#6a83ec"/><path d="M 110.55 626.45 A 36.85 36.85 0 0 1  147.4 663.3000000000001 L 110.55 626.45 A 36.85 36.85 0 0 0 147.4 663.3000000000001" fill="#ffc1ea"/><path d="M 221.1 589.6 A 73.7 73.7 0 0 1  294.8 663.3000000000001 L 221.1 589.6 A 73.7 73.7 0 0 0 294.8 663.3000000000001" fill="#ffcdee"/><rect x="368.5" y="589.6" width="73.7" height="73.7" fill="#ffffff"/><path d="M 368.5 589.6 A 36.85 36.85 0 0 1  405.35 626.45 L 368.5 589.6 A 36.85 36.85 0 0 0 405.35 626.45" fill="#ffa6e1"/><path d="M 368.5 663.3000000000001 A 36.85 36.85 0 0 1  405.35 626.45 L 368.5 663.3000000000001 A 36.85 36.85 0 0 0 405.35 626.45" fill="#7b91ee"/><path d="M 515.9 589.6 A 73.7 73.7 0 0 1  589.6 663.3000000000001 L 515.9 589.6 A 73.7 73.7 0 0 0 589.6 663.3000000000001" fill="#ff4ac3"/><rect x="589.6" y="589.6" width="73.7" height="73.7" fill="#ffffff"/><path d="M 589.6 663.3000000000001 A 36.85 36.85 0 0 1  626.45 626.45 L 589.6 663.3000000000001 A 36.85 36.85 0 0 0 626.45 626.45" fill="#ff39bd"/><rect x="810.7" y="589.6" width="73.7" height="73.7" fill="#ffffff"/><path d="M 810.7 589.6 A 36.85 36.85 0 0 1  847.5500000000001 626.45 L 810.7 589.6 A 36.85 36.85 0 0 0 847.5500000000001 626.45" fill="#a2b2f3"/><path d="M 847.55 589.6 A 36.85 36.85 0 0 1  884.4 626.45 L 847.55 589.6 A 36.85 36.85 0 0 0 884.4 626.45" fill="#a8b6f4"/><path d="M 810.7 626.45 A 36.85 36.85 0 0 1  847.5500000000001 663.3000000000001 L 810.7 626.45 A 36.85 36.85 0 0 0 847.5500000000001 663.3000000000001" fill="#ffaee4"/><rect x="1105.5" y="589.6" width="73.7" height="73.7" fill="#ffffff"/><path d="M 1105.5 626.45 A 36.85 36.85 0 0 1  1142.35 589.6 L 1105.5 626.45 A 36.85 36.85 0 0 0 1142.35 589.6" fill="#a7b6f4"/><path d="M 1105.5 626.45 A 36.85 36.85 0 0 1  1142.35 663.3000000000001 L 1105.5 626.45 A 36.85 36.85 0 0 0 1142.35 663.3000000000001" fill="#899df0"/><rect x="147.4" y="663.3000000000001" width="73.7" height="73.7" fill="#ffffff"/><path d="M 184.25 737 A 36.85 36.85 0 0 1  221.1 700.15 L 184.25 737 A 36.85 36.85 0 0 0 221.1 700.15" fill="#758ced"/><path d="M 221.1 737 A 73.7 73.7 0 0 1  294.8 663.3 L 221.1 737 A 73.7 73.7 0 0 0 294.8 663.3" fill="#a9b7f4"/><rect x="442.20000000000005" y="663.3000000000001" width="73.7" height="73.7" fill="#ffffff"/><rect x="958.1" y="663.3000000000001" width="73.7" height="73.7" fill="#ffffff"/><path d="M 958.1 737 A 36.85 36.85 0 0 1  994.95 700.15 L 958.1 737 A 36.85 36.85 0 0 0 994.95 700.15" fill="#b6c2f6"/><rect x="1031.8" y="663.3000000000001" width="73.7" height="73.7" fill="#ffffff"/><path d="M 1031.8 700.15 A 36.85 36.85 0 0 1  1068.6499999999999 663.3 L 1031.8 700.15 A 36.85 36.85 0 0 0 1068.6499999999999 663.3" fill="#ff45c1"/><path d="M 1068.65 700.15 A 36.85 36.85 0 0 1  1105.5 737 L 1068.65 700.15 A 36.85 36.85 0 0 0 1105.5 737" fill="#6d85ec"/></g></svg>