<?xml version="1.0" standalone="no"?><svg xmlns:xlink="http://www.w3.org/1999/xlink" xmlns="http://www.w3.org/2000/svg" viewBox="0 0 2000 1125.0036431465128" preserveAspectRatio="xMaxYMax slice"><g transform="scale(1.943011473482751)"><rect x="0" y="0" width="1029.3333333333333" height="579" fill="#fafafa"/><rect x="64.33333333333333" y="0" width="64.33333333333333" height="64.33333333333333" fill="#fafafa"/><polygon points="96.5,0 128.67000000000002,0 128.67000000000002,32.17" fill="#b4c0f2"/><polygon points="96.5,32.17 128.67000000000002,32.17 128.67000000000002,64.34" fill="#fc99b1"/><rect x="128.66666666666666" y="0" width="64.33333333333333" height="64.33333333333333" fill="#fafafa"/><polygon points="160.83,32.17 193,32.17 160.83,64.34" fill="#fbd7e0"/><rect x="643.3333333333333" y="0" width="64.33333333333333" height="64.33333333333333" fill="#fafafa"/><polygon points="675.5,32.17 707.67,32.17 707.67,64.34" fill="#e3e7f7"/><rect x="836.3333333333333" y="0" width="64.33333333333333" height="64.33333333333333" fill="#fafafa"/><polygon points="836.33,0 868.5,32.17 836.33,32.17" fill="#fd7696"/><polygon points="900.67,32.17 900.67,64.34 868.5,64.34" fill="#fe537c"/><rect x="900.6666666666666" y="0" width="64.33333333333333" height="64.33333333333333" fill="#fafafa"/><polygon points="900.67,0 932.8399999999999,32.17 900.67,32.17" fill="#1c42e1"/><polygon points="932.83,0 965,0 932.83,32.17" fill="#eceff9"/><polygon points="932.83,32.17 965,32.17 932.83,64.34" fill="#fbc0ce"/><rect x="0" y="64.33333333333333" width="64.33333333333333" height="64.33333333333333" fill="#fafafa"/><polygon points="32.17,64.33 32.17,96.5 0,96.5" fill="#fca9bc"/><polygon points="32.17,96.5 64.34,128.67000000000002 32.17,128.67000000000002" fill="#889bed"/><rect x="64.33333333333333" y="64.33333333333333" width="64.33333333333333" height="64.33333333333333" fill="#fafafa"/><polygon points="128.67000000000002,64.33 128.67000000000002,96.5 96.5,96.5" fill="#8c9fee"/><rect x="128.66666666666666" y="64.33333333333333" width="64.33333333333333" height="64.33333333333333" fill="#fafafa"/><polygon points="160.83999999999997,64.33 160.83999999999997,96.5 128.67,96.5" fill="#fe517a"/><polygon points="160.83,64.33 193,64.33 193,96.5" fill="#1b42e1"/><polygon points="128.67,96.5 160.83999999999997,128.67000000000002 128.67,128.67000000000002" fill="#d5dcf6"/><rect x="321.66666666666663" y="64.33333333333333" width="64.33333333333333" height="64.33333333333333" fill="#fafafa"/><polygon points="353.83,64.33 386,64.33 386,96.5" fill="#fae9ed"/><rect x="707.6666666666666" y="64.33333333333333" width="64.33333333333333" height="64.33333333333333" fill="#fafafa"/><polygon points="772,64.33 772,96.5 739.83,96.5" fill="#ff3b6a"/><polygon points="739.83,96.5 772,128.67000000000002 739.83,128.67000000000002" fill="#637de9"/><rect x="772" y="64.33333333333333" width="64.33333333333333" height="64.33333333333333" fill="#fafafa"/><polygon points="804.17,64.33 836.3399999999999,64.33 836.3399999999999,96.5" fill="#5874e8"/><rect x="0" y="128.66666666666666" width="64.33333333333333" height="64.33333333333333" fill="#fafafa"/><polygon points="0,160.83 32.17,193 0,193" fill="#ff3e6c"/><rect x="193" y="128.66666666666666" width="64.33333333333333" height="64.33333333333333" fill="#fafafa"/><polygon points="225.17,128.67 257.34,128.67 225.17,160.83999999999997" fill="#faeef1"/><rect x="321.66666666666663" y="128.66666666666666" width="64.33333333333333" height="64.33333333333333" fill="#fafafa"/><rect x="386" y="128.66666666666666" width="64.33333333333333" height="64.33333333333333" fill="#fafafa"/><polygon points="386,128.67 418.17,128.67 386,160.83999999999997" fill="#6780ea"/><polygon points="418.17,128.67 450.34000000000003,128.67 450.34000000000003,160.83999999999997" fill="#4161e6"/><rect x="514.6666666666666" y="128.66666666666666" width="64.33333333333333" height="64.33333333333333" fill="#fafafa"/><polygon points="546.83,128.67 579,160.83999999999997 546.83,160.83999999999997" fill="#faecef"/><polygon points="546.83,160.83 579,160.83 579,193" fill="#4362e6"/><rect x="772" y="128.66666666666666" width="64.33333333333333" height="64.33333333333333" fill="#fafafa"/><polygon points="804.17,128.67 836.3399999999999,128.67 804.17,160.83999999999997" fill="#fe6589"/><rect x="964.9999999999999" y="128.66666666666666" width="64.33333333333333" height="64.33333333333333" fill="#fafafa"/><polygon points="965,160.83 997.17,160.83 997.17,193" fill="#657ee9"/><rect x="0" y="193" width="64.33333333333333" height="64.33333333333333" fill="#fafafa"/><rect x="128.66666666666666" y="193" width="64.33333333333333" height="64.33333333333333" fill="#fafafa"/><polygon points="160.83999999999997,225.17 160.83999999999997,257.34 128.67,257.34" fill="#3c5ce5"/><rect x="257.3333333333333" y="193" width="64.33333333333333" height="64.33333333333333" fill="#fafafa"/><polygon points="257.33,225.17 289.5,225.17 257.33,257.34" fill="#dbe0f7"/><polygon points="289.5,225.17 321.67,225.17 321.67,257.34" fill="#5571e8"/><rect x="321.66666666666663" y="193" width="64.33333333333333" height="64.33333333333333" fill="#fafafa"/><rect x="386" y="193" width="64.33333333333333" height="64.33333333333333" fill="#fafafa"/><polygon points="418.17,225.17 450.34000000000003,225.17 450.34000000000003,257.34" fill="#fe5e84"/><rect x="450.3333333333333" y="193" width="64.33333333333333" height="64.33333333333333" fill="#fafafa"/><polygon points="450.33,193 482.5,225.17000000000002 450.33,225.17000000000002" fill="#a5b4f1"/><rect x="579" y="193" width="64.33333333333333" height="64.33333333333333" fill="#fafafa"/><polygon points="611.17,225.17 643.3399999999999,257.34 611.17,257.34" fill="#fca1b7"/><rect x="707.6666666666666" y="193" width="64.33333333333333" height="64.33333333333333" fill="#fafafa"/><rect x="772" y="193" width="64.33333333333333" height="64.33333333333333" fill="#fafafa"/><polygon points="804.17,193 804.17,225.17000000000002 772,225.17000000000002" fill="#b9c4f3"/><polygon points="772,225.17 804.17,257.34 772,257.34" fill="#fd83a0"/><rect x="900.6666666666666" y="193" width="64.33333333333333" height="64.33333333333333" fill="#fafafa"/><rect x="964.9999999999999" y="193" width="64.33333333333333" height="64.33333333333333" fill="#fafafa"/><rect x="0" y="257.3333333333333" width="64.33333333333333" height="64.33333333333333" fill="#fafafa"/><polygon points="0,257.33 32.17,289.5 0,289.5" fill="#fd91aa"/><polygon points="32.17,257.33 64.34,289.5 32.17,289.5" fill="#fd93ac"/><rect x="64.33333333333333" y="257.3333333333333" width="64.33333333333333" height="64.33333333333333" fill="#fafafa"/><polygon points="128.67000000000002,257.33 128.67000000000002,289.5 96.5,289.5" fill="#284ce3"/><polygon points="96.5,289.5 96.5,321.67 64.33,321.67" fill="#9dadf0"/><rect x="257.3333333333333" y="257.3333333333333" width="64.33333333333333" height="64.33333333333333" fill="#fafafa"/><rect x="386" y="257.3333333333333" width="64.33333333333333" height="64.33333333333333" fill="#fafafa"/><polygon points="418.17,257.33 450.34000000000003,289.5 418.17,289.5" fill="#fcb2c3"/><rect x="579" y="257.3333333333333" width="64.33333333333333" height="64.33333333333333" fill="#fafafa"/><polygon points="611.17,289.5 611.17,321.67 579,321.67" fill="#385ae5"/><rect x="772" y="257.3333333333333" width="64.33333333333333" height="64.33333333333333" fill="#fafafa"/><polygon points="804.17,257.33 836.3399999999999,257.33 804.17,289.5" fill="#fcadc0"/><polygon points="804.17,289.5 836.3399999999999,289.5 804.17,321.67" fill="#778deb"/><rect x="193" y="321.66666666666663" width="64.33333333333333" height="64.33333333333333" fill="#fafafa"/><polygon points="225.17,321.67 257.34,321.67 257.34,353.84000000000003" fill="#cdd5f5"/><polygon points="193,353.83 225.17000000000002,353.83 225.17000000000002,386" fill="#fbd5de"/><rect x="257.3333333333333" y="321.66666666666663" width="64.33333333333333" height="64.33333333333333" fill="#fafafa"/><rect x="321.66666666666663" y="321.66666666666663" width="64.33333333333333" height="64.33333333333333" fill="#fafafa"/><polygon points="353.83,353.83 386,353.83 386,386" fill="#ff3867"/><rect x="386" y="321.66666666666663" width="64.33333333333333" height="64.33333333333333" fill="#fafafa"/><polygon points="386,321.67 418.17,321.67 386,353.84000000000003" fill="#fbe2e7"/><polygon points="450.34000000000003,321.67 450.34000000000003,353.84000000000003 418.17,353.84000000000003" fill="#bbc6f3"/><rect x="643.3333333333333" y="321.66666666666663" width="64.33333333333333" height="64.33333333333333" fill="#fafafa"/><rect x="836.3333333333333" y="321.66666666666663" width="64.33333333333333" height="64.33333333333333" fill="#fafafa"/><rect x="964.9999999999999" y="321.66666666666663" width="64.33333333333333" height="64.33333333333333" fill="#fafafa"/><polygon points="965,321.67 997.17,353.84000000000003 965,353.84000000000003" fill="#fd82a0"/><rect x="257.3333333333333" y="386" width="64.33333333333333" height="64.33333333333333" fill="#fafafa"/><polygon points="321.67,386 321.67,418.17 289.5,418.17" fill="#899ced"/><rect x="321.66666666666663" y="386" width="64.33333333333333" height="64.33333333333333" fill="#fafafa"/><polygon points="321.67,386 353.84000000000003,386 321.67,418.17" fill="#fc9bb2"/><rect x="386" y="386" width="64.33333333333333" height="64.33333333333333" fill="#fafafa"/><polygon points="418.17,418.17 418.17,450.34000000000003 386,450.34000000000003" fill="#faecef"/><polygon points="418.17,418.17 450.34000000000003,418.17 450.34000000000003,450.34000000000003" fill="#faf5f6"/><rect x="579" y="386" width="64.33333333333333" height="64.33333333333333" fill="#fafafa"/><polygon points="643.3399999999999,418.17 643.3399999999999,450.34000000000003 611.17,450.34000000000003" fill="#fbced9"/><rect x="643.3333333333333" y="386" width="64.33333333333333" height="64.33333333333333" fill="#fafafa"/><polygon points="643.33,386 675.5,418.17 643.33,418.17" fill="#faecef"/><polygon points="643.33,418.17 675.5,450.34000000000003 643.33,450.34000000000003" fill="#fbd6df"/><polygon points="675.5,418.17 707.67,450.34000000000003 675.5,450.34000000000003" fill="#7088eb"/><rect x="836.3333333333333" y="386" width="64.33333333333333" height="64.33333333333333" fill="#fafafa"/><polygon points="868.5,418.17 900.67,450.34000000000003 868.5,450.34000000000003" fill="#fbd4dd"/><rect x="64.33333333333333" y="450.3333333333333" width="64.33333333333333" height="64.33333333333333" fill="#fafafa"/><polygon points="64.33,450.33 96.5,482.5 64.33,482.5" fill="#9faff0"/><polygon points="96.5,450.33 128.67000000000002,450.33 96.5,482.5" fill="#f2f3f9"/><rect x="193" y="450.3333333333333" width="64.33333333333333" height="64.33333333333333" fill="#fafafa"/><polygon points="193,450.33 225.17000000000002,450.33 193,482.5" fill="#fc9fb5"/><polygon points="257.34,482.5 257.34,514.67 225.17,514.67" fill="#cbd3f5"/><rect x="257.3333333333333" y="450.3333333333333" width="64.33333333333333" height="64.33333333333333" fill="#fafafa"/><polygon points="257.33,450.33 289.5,450.33 289.5,482.5" fill="#fcbbca"/><polygon points="289.5,482.5 321.67,482.5 289.5,514.67" fill="#ff3766"/><rect x="514.6666666666666" y="450.3333333333333" width="64.33333333333333" height="64.33333333333333" fill="#fafafa"/><polygon points="546.8399999999999,450.33 546.8399999999999,482.5 514.67,482.5" fill="#fe577f"/><polygon points="514.67,482.5 546.8399999999999,482.5 514.67,514.67" fill="#fbe6eb"/><polygon points="546.83,482.5 579,482.5 546.83,514.67" fill="#95a6ef"/><rect x="643.3333333333333" y="450.3333333333333" width="64.33333333333333" height="64.33333333333333" fill="#fafafa"/><polygon points="675.5,450.33 707.67,482.5 675.5,482.5" fill="#d3daf6"/><rect x="836.3333333333333" y="450.3333333333333" width="64.33333333333333" height="64.33333333333333" fill="#fafafa"/><polygon points="836.33,482.5 868.5,482.5 836.33,514.67" fill="#fe547c"/><rect x="964.9999999999999" y="450.3333333333333" width="64.33333333333333" height="64.33333333333333" fill="#fafafa"/><polygon points="997.17,450.33 1029.34,450.33 1029.34,482.5" fill="#fd88a4"/><polygon points="965,482.5 997.17,482.5 997.17,514.67" fill="#ccd4f5"/><polygon points="997.17,482.5 1029.34,514.67 997.17,514.67" fill="#a7b5f1"/><rect x="0" y="514.6666666666666" width="64.33333333333333" height="64.33333333333333" fill="#fafafa"/><polygon points="0,514.67 32.17,546.8399999999999 0,546.8399999999999" fill="#ff3b6a"/><rect x="128.66666666666666" y="514.6666666666666" width="64.33333333333333" height="64.33333333333333" fill="#fafafa"/><polygon points="160.83,514.67 193,546.8399999999999 160.83,546.8399999999999" fill="#fbe0e6"/><polygon points="160.83,546.83 193,579 160.83,579" fill="#fe517a"/><rect x="386" y="514.6666666666666" width="64.33333333333333" height="64.33333333333333" fill="#fafafa"/><rect x="514.6666666666666" y="514.6666666666666" width="64.33333333333333" height="64.33333333333333" fill="#fafafa"/><polygon points="514.67,514.67 546.8399999999999,514.67 514.67,546.8399999999999" fill="#ff3767"/><polygon points="546.83,546.83 579,579 546.83,579" fill="#faf7f8"/><rect x="579" y="514.6666666666666" width="64.33333333333333" height="64.33333333333333" fill="#fafafa"/><rect x="900.6666666666666" y="514.6666666666666" width="64.33333333333333" height="64.33333333333333" fill="#fafafa"/><polygon points="932.8399999999999,514.67 932.8399999999999,546.8399999999999 900.67,546.8399999999999" fill="#2348e2"/><polygon points="965,514.67 965,546.8399999999999 932.83,546.8399999999999" fill="#fbccd7"/><polygon points="932.83,546.83 965,546.83 932.83,579" fill="#4161e6"/><rect x="964.9999999999999" y="514.6666666666666" width="64.33333333333333" height="64.33333333333333" fill="#fafafa"/><polygon points="965,514.67 997.17,514.67 965,546.8399999999999" fill="#4262e6"/></g></svg>