<?xml version="1.0" standalone="no"?><svg xmlns:xlink="http://www.w3.org/1999/xlink" xmlns="http://www.w3.org/2000/svg" viewBox="0 0 2000 1125.0076904822592" preserveAspectRatio="xMaxYMax slice"><g transform="scale(1.75782451637853)"><rect x="0" y="0" width="1137.7777777777778" height="640" fill="#ffffff"/><rect x="142.22222222222223" y="71.11111111111111" width="71.11111111111111" height="71.11111111111111" fill="#ffffff"/><rect x="640" y="71.11111111111111" width="71.11111111111111" height="71.11111111111111" fill="#ffffff"/><rect x="711.1111111111111" y="71.11111111111111" width="71.11111111111111" height="71.11111111111111" fill="#ffffff"/><rect x="355.55555555555554" y="142.22222222222223" width="71.11111111111111" height="71.11111111111111" fill="#ffffff"/><rect x="426.6666666666667" y="142.22222222222223" width="71.11111111111111" height="71.11111111111111" fill="#ffffff"/><rect x="497.7777777777778" y="142.22222222222223" width="71.11111111111111" height="71.11111111111111" fill="#ffffff"/><path d="M 497.78 142.22 A 35.56 35.56 0 0 1  533.3399999999999 177.78 L 497.78 142.22 A 35.56 35.56 0 0 0 533.3399999999999 177.78" fill="#b3c0f5"/><rect x="142.22222222222223" y="213.33333333333334" width="71.11111111111111" height="71.11111111111111" fill="#ffffff"/><path d="M 142.22 248.89000000000001 A 35.56 35.56 0 0 1  177.78 213.33 L 142.22 248.89000000000001 A 35.56 35.56 0 0 0 177.78 213.33" fill="#ff809e"/><path d="M 142.22 248.89 A 35.56 35.56 0 0 1  177.78 284.45 L 142.22 248.89 A 35.56 35.56 0 0 0 177.78 284.45" fill="#ff3d6b"/><path d="M 177.78 248.89 A 35.56 35.56 0 0 1  213.34 284.45 L 177.78 248.89 A 35.56 35.56 0 0 0 213.34 284.45" fill="#2a4ee3"/><rect x="284.44444444444446" y="213.33333333333334" width="71.11111111111111" height="71.11111111111111" fill="#ffffff"/><path d="M 320 213.33 A 35.56 35.56 0 0 1  355.56 248.89000000000001 L 320 213.33 A 35.56 35.56 0 0 0 355.56 248.89000000000001" fill="#ffb0c3"/><path d="M 284.44 284.45 A 35.56 35.56 0 0 1  320 248.89 L 284.44 284.45 A 35.56 35.56 0 0 0 320 248.89" fill="#ff6c8f"/><path d="M 320 248.89 A 35.56 35.56 0 0 1  355.56 284.45 L 320 248.89 A 35.56 35.56 0 0 0 355.56 284.45" fill="#ffe8ee"/><rect x="640" y="213.33333333333334" width="71.11111111111111" height="71.11111111111111" fill="#ffffff"/><rect x="711.1111111111111" y="213.33333333333334" width="71.11111111111111" height="71.11111111111111" fill="#ffffff"/><path d="M 711.11 213.33 A 35.56 35.56 0 0 1  746.6700000000001 248.89000000000001 L 711.11 213.33 A 35.56 35.56 0 0 0 746.6700000000001 248.89000000000001" fill="#a8b7f4"/><path d="M 746.67 213.33 A 35.56 35.56 0 0 1  782.23 248.89000000000001 L 746.67 213.33 A 35.56 35.56 0 0 0 782.23 248.89000000000001" fill="#ffb5c6"/><path d="M 746.67 248.89 A 35.56 35.56 0 0 1  782.23 284.45 L 746.67 248.89 A 35.56 35.56 0 0 0 782.23 284.45" fill="#f4f6fe"/><rect x="1066.6666666666667" y="213.33333333333334" width="71.11111111111111" height="71.11111111111111" fill="#ffffff"/><path d="M 1066.67 248.89000000000001 A 35.56 35.56 0 0 1  1102.23 213.33 L 1066.67 248.89000000000001 A 35.56 35.56 0 0 0 1102.23 213.33" fill="#c1cbf7"/><path d="M 1102.22 213.33 A 35.56 35.56 0 0 1  1137.78 248.89000000000001 L 1102.22 213.33 A 35.56 35.56 0 0 0 1137.78 248.89000000000001" fill="#5975e9"/><path d="M 1102.22 284.45 A 35.56 35.56 0 0 1  1137.78 248.89 L 1102.22 284.45 A 35.56 35.56 0 0 0 1137.78 248.89" fill="#e0e5fb"/><rect x="213.33333333333334" y="284.44444444444446" width="71.11111111111111" height="71.11111111111111" fill="#ffffff"/><path d="M 213.33 320 A 35.56 35.56 0 0 1  248.89000000000001 355.56 L 213.33 320 A 35.56 35.56 0 0 0 248.89000000000001 355.56" fill="#ff668a"/><path d="M 248.89 320 A 35.56 35.56 0 0 1  284.45 355.56 L 248.89 320 A 35.56 35.56 0 0 0 284.45 355.56" fill="#ffd0db"/><rect x="284.44444444444446" y="284.44444444444446" width="71.11111111111111" height="71.11111111111111" fill="#ffffff"/><path d="M 320 284.44 A 35.56 35.56 0 0 1  355.56 320 L 320 284.44 A 35.56 35.56 0 0 0 355.56 320" fill="#ff9eb5"/><path d="M 284.44 320 A 35.56 35.56 0 0 1  320 355.56 L 284.44 320 A 35.56 35.56 0 0 0 320 355.56" fill="#1b42e1"/><path d="M 320 355.56 A 35.56 35.56 0 0 1  355.56 320 L 320 355.56 A 35.56 35.56 0 0 0 355.56 320" fill="#ff94ad"/><rect x="497.7777777777778" y="284.44444444444446" width="71.11111111111111" height="71.11111111111111" fill="#ffffff"/><path d="M 533.33 320 A 35.56 35.56 0 0 1  568.8900000000001 355.56 L 533.33 320 A 35.56 35.56 0 0 0 568.8900000000001 355.56" fill="#c5cff7"/><rect x="568.8888888888889" y="284.44444444444446" width="71.11111111111111" height="71.11111111111111" fill="#ffffff"/><path d="M 568.89 355.56 A 35.56 35.56 0 0 1  604.45 320 L 568.89 355.56 A 35.56 35.56 0 0 0 604.45 320" fill="#c8d1f8"/><rect x="711.1111111111111" y="284.44444444444446" width="71.11111111111111" height="71.11111111111111" fill="#ffffff"/><path d="M 746.67 284.44 A 35.56 35.56 0 0 1  782.23 320 L 746.67 284.44 A 35.56 35.56 0 0 0 782.23 320" fill="#3053e4"/><path d="M 711.11 355.56 A 35.56 35.56 0 0 1  746.6700000000001 320 L 711.11 355.56 A 35.56 35.56 0 0 0 746.6700000000001 320" fill="#4060e6"/><rect x="995.5555555555557" y="284.44444444444446" width="71.11111111111111" height="71.11111111111111" fill="#ffffff"/><path d="M 1031.11 320 A 35.56 35.56 0 0 1  1066.6699999999998 284.44 L 1031.11 320 A 35.56 35.56 0 0 0 1066.6699999999998 284.44" fill="#fffbfc"/><path d="M 995.56 355.56 A 35.56 35.56 0 0 1  1031.12 320 L 995.56 355.56 A 35.56 35.56 0 0 0 1031.12 320" fill="#c9d2f8"/><path d="M 1031.11 355.56 A 35.56 35.56 0 0 1  1066.6699999999998 320 L 1031.11 355.56 A 35.56 35.56 0 0 0 1066.6699999999998 320" fill="#3759e5"/><rect x="0" y="355.55555555555554" width="71.11111111111111" height="71.11111111111111" fill="#ffffff"/><path d="M 0 355.56 A 35.56 35.56 0 0 1  35.56 391.12 L 0 355.56 A 35.56 35.56 0 0 0 35.56 391.12" fill="#ffa2b8"/><path d="M 0 426.67 A 35.56 35.56 0 0 1  35.56 391.11 L 0 426.67 A 35.56 35.56 0 0 0 35.56 391.11" fill="#abbaf4"/><rect x="71.11111111111111" y="355.55555555555554" width="71.11111111111111" height="71.11111111111111" fill="#ffffff"/><path d="M 71.11 355.56 A 35.56 35.56 0 0 1  106.67 391.12 L 71.11 355.56 A 35.56 35.56 0 0 0 106.67 391.12" fill="#edf0fd"/><path d="M 106.67 355.56 A 35.56 35.56 0 0 1  142.23000000000002 391.12 L 106.67 355.56 A 35.56 35.56 0 0 0 142.23000000000002 391.12" fill="#ff6187"/><path d="M 71.11 391.11 A 35.56 35.56 0 0 1  106.67 426.67 L 71.11 391.11 A 35.56 35.56 0 0 0 106.67 426.67" fill="#fffbfc"/><path d="M 106.67 426.67 A 35.56 35.56 0 0 1  142.23000000000002 391.11 L 106.67 426.67 A 35.56 35.56 0 0 0 142.23000000000002 391.11" fill="#eef1fd"/><rect x="284.44444444444446" y="355.55555555555554" width="71.11111111111111" height="71.11111111111111" fill="#ffffff"/><path d="M 320 391.12 A 35.56 35.56 0 0 1  355.56 355.56 L 320 391.12 A 35.56 35.56 0 0 0 355.56 355.56" fill="#fffdfd"/><path d="M 284.44 426.67 A 35.56 35.56 0 0 1  320 391.11 L 284.44 426.67 A 35.56 35.56 0 0 0 320 391.11" fill="#5975e9"/><path d="M 320 391.11 A 35.56 35.56 0 0 1  355.56 426.67 L 320 391.11 A 35.56 35.56 0 0 0 355.56 426.67" fill="#ff8da8"/><rect x="355.55555555555554" y="355.55555555555554" width="71.11111111111111" height="71.11111111111111" fill="#ffffff"/><path d="M 391.11 391.12 A 35.56 35.56 0 0 1  426.67 355.56 L 391.11 391.12 A 35.56 35.56 0 0 0 426.67 355.56" fill="#ff4b76"/><path d="M 391.11 391.11 A 35.56 35.56 0 0 1  426.67 426.67 L 391.11 391.11 A 35.56 35.56 0 0 0 426.67 426.67" fill="#d8dffa"/><rect x="426.6666666666667" y="355.55555555555554" width="71.11111111111111" height="71.11111111111111" fill="#ffffff"/><path d="M 426.67 391.12 A 35.56 35.56 0 0 1  462.23 355.56 L 426.67 391.12 A 35.56 35.56 0 0 0 462.23 355.56" fill="#8fa2f0"/><path d="M 462.22 355.56 A 35.56 35.56 0 0 1  497.78000000000003 391.12 L 462.22 355.56 A 35.56 35.56 0 0 0 497.78000000000003 391.12" fill="#fffbfc"/><rect x="497.7777777777778" y="355.55555555555554" width="71.11111111111111" height="71.11111111111111" fill="#ffffff"/><path d="M 497.78 355.56 A 35.56 35.56 0 0 1  533.3399999999999 391.12 L 497.78 355.56 A 35.56 35.56 0 0 0 533.3399999999999 391.12" fill="#eaeefc"/><path d="M 497.78 391.11 A 35.56 35.56 0 0 1  533.3399999999999 426.67 L 497.78 391.11 A 35.56 35.56 0 0 0 533.3399999999999 426.67" fill="#ff5d83"/><path d="M 533.33 426.67 A 35.56 35.56 0 0 1  568.8900000000001 391.11 L 533.33 426.67 A 35.56 35.56 0 0 0 568.8900000000001 391.11" fill="#c1cbf7"/><rect x="640" y="355.55555555555554" width="71.11111111111111" height="71.11111111111111" fill="#ffffff"/><path d="M 675.56 391.12 A 35.56 35.56 0 0 1  711.1199999999999 355.56 L 675.56 391.12 A 35.56 35.56 0 0 0 711.1199999999999 355.56" fill="#7990ee"/><path d="M 675.56 426.67 A 35.56 35.56 0 0 1  711.1199999999999 391.11 L 675.56 426.67 A 35.56 35.56 0 0 0 711.1199999999999 391.11" fill="#ffb5c7"/><rect x="711.1111111111111" y="355.55555555555554" width="71.11111111111111" height="71.11111111111111" fill="#ffffff"/><path d="M 711.11 355.56 A 35.56 35.56 0 0 1  746.6700000000001 391.12 L 711.11 355.56 A 35.56 35.56 0 0 0 746.6700000000001 391.12" fill="#ff7193"/><path d="M 746.67 355.56 A 35.56 35.56 0 0 1  782.23 391.12 L 746.67 355.56 A 35.56 35.56 0 0 0 782.23 391.12" fill="#ff8da8"/><path d="M 711.11 426.67 A 35.56 35.56 0 0 1  746.6700000000001 391.11 L 711.11 426.67 A 35.56 35.56 0 0 0 746.6700000000001 391.11" fill="#ff90aa"/><path d="M 746.67 426.67 A 35.56 35.56 0 0 1  782.23 391.11 L 746.67 426.67 A 35.56 35.56 0 0 0 782.23 391.11" fill="#869bef"/><rect x="782.2222222222223" y="355.55555555555554" width="71.11111111111111" height="71.11111111111111" fill="#ffffff"/><path d="M 782.22 355.56 A 35.56 35.56 0 0 1  817.78 391.12 L 782.22 355.56 A 35.56 35.56 0 0 0 817.78 391.12" fill="#6982eb"/><path d="M 817.78 391.12 A 35.56 35.56 0 0 1  853.3399999999999 355.56 L 817.78 391.12 A 35.56 35.56 0 0 0 853.3399999999999 355.56" fill="#ffd6e0"/><path d="M 782.22 391.11 A 35.56 35.56 0 0 1  817.78 426.67 L 782.22 391.11 A 35.56 35.56 0 0 0 817.78 426.67" fill="#fff6f8"/><rect x="924.4444444444445" y="355.55555555555554" width="71.11111111111111" height="71.11111111111111" fill="#ffffff"/><path d="M 924.44 391.12 A 35.56 35.56 0 0 1  960 355.56 L 924.44 391.12 A 35.56 35.56 0 0 0 960 355.56" fill="#afbdf5"/><path d="M 924.44 391.11 A 35.56 35.56 0 0 1  960 426.67 L 924.44 391.11 A 35.56 35.56 0 0 0 960 426.67" fill="#b4c1f5"/><path d="M 960 391.11 A 35.56 35.56 0 0 1  995.56 426.67 L 960 391.11 A 35.56 35.56 0 0 0 995.56 426.67" fill="#1e44e2"/><rect x="1066.6666666666667" y="355.55555555555554" width="71.11111111111111" height="71.11111111111111" fill="#ffffff"/><path d="M 1102.22 355.56 A 35.56 35.56 0 0 1  1137.78 391.12 L 1102.22 355.56 A 35.56 35.56 0 0 0 1137.78 391.12" fill="#ffd9e2"/><path d="M 1066.67 391.11 A 35.56 35.56 0 0 1  1102.23 426.67 L 1066.67 391.11 A 35.56 35.56 0 0 0 1102.23 426.67" fill="#dee3fb"/><rect x="0" y="426.6666666666667" width="71.11111111111111" height="71.11111111111111" fill="#ffffff"/><path d="M 0 426.67 A 35.56 35.56 0 0 1  35.56 462.23 L 0 426.67 A 35.56 35.56 0 0 0 35.56 462.23" fill="#2348e2"/><path d="M 35.56 426.67 A 35.56 35.56 0 0 1  71.12 462.23 L 35.56 426.67 A 35.56 35.56 0 0 0 71.12 462.23" fill="#ffd0db"/><path d="M 35.56 462.22 A 35.56 35.56 0 0 1  71.12 497.78000000000003 L 35.56 462.22 A 35.56 35.56 0 0 0 71.12 497.78000000000003" fill="#d2d9f9"/><rect x="71.11111111111111" y="426.6666666666667" width="71.11111111111111" height="71.11111111111111" fill="#ffffff"/><path d="M 71.11 462.23 A 35.56 35.56 0 0 1  106.67 426.67 L 71.11 462.23 A 35.56 35.56 0 0 0 106.67 426.67" fill="#2247e2"/><path d="M 106.67 462.23 A 35.56 35.56 0 0 1  142.23000000000002 426.67 L 106.67 462.23 A 35.56 35.56 0 0 0 142.23000000000002 426.67" fill="#ffd0dc"/><path d="M 71.11 462.22 A 35.56 35.56 0 0 1  106.67 497.78000000000003 L 71.11 462.22 A 35.56 35.56 0 0 0 106.67 497.78000000000003" fill="#7d93ee"/><path d="M 106.67 497.78000000000003 A 35.56 35.56 0 0 1  142.23000000000002 462.22 L 106.67 497.78000000000003 A 35.56 35.56 0 0 0 142.23000000000002 462.22" fill="#e5e9fc"/><rect x="142.22222222222223" y="426.6666666666667" width="71.11111111111111" height="71.11111111111111" fill="#ffffff"/><path d="M 142.22 462.23 A 35.56 35.56 0 0 1  177.78 426.67 L 142.22 462.23 A 35.56 35.56 0 0 0 177.78 426.67" fill="#ff698d"/><path d="M 142.22 497.78000000000003 A 35.56 35.56 0 0 1  177.78 462.22 L 142.22 497.78000000000003 A 35.56 35.56 0 0 0 177.78 462.22" fill="#274be3"/><path d="M 177.78 497.78000000000003 A 35.56 35.56 0 0 1  213.34 462.22 L 177.78 497.78000000000003 A 35.56 35.56 0 0 0 213.34 462.22" fill="#5b77ea"/><rect x="213.33333333333334" y="426.6666666666667" width="71.11111111111111" height="71.11111111111111" fill="#ffffff"/><path d="M 213.33 426.67 A 35.56 35.56 0 0 1  248.89000000000001 462.23 L 213.33 426.67 A 35.56 35.56 0 0 0 248.89000000000001 462.23" fill="#ffc7d4"/><path d="M 248.89 426.67 A 35.56 35.56 0 0 1  284.45 462.23 L 248.89 426.67 A 35.56 35.56 0 0 0 284.45 462.23" fill="#ff809e"/><path d="M 213.33 497.78000000000003 A 35.56 35.56 0 0 1  248.89000000000001 462.22 L 213.33 497.78000000000003 A 35.56 35.56 0 0 0 248.89000000000001 462.22" fill="#ffbaca"/><path d="M 248.89 462.22 A 35.56 35.56 0 0 1  284.45 497.78000000000003 L 248.89 462.22 A 35.56 35.56 0 0 0 284.45 497.78000000000003" fill="#f4f6fe"/><rect x="355.55555555555554" y="426.6666666666667" width="71.11111111111111" height="71.11111111111111" fill="#ffffff"/><path d="M 355.56 462.23 A 35.56 35.56 0 0 1  391.12 426.67 L 355.56 462.23 A 35.56 35.56 0 0 0 391.12 426.67" fill="#ff96af"/><path d="M 391.11 462.23 A 35.56 35.56 0 0 1  426.67 426.67 L 391.11 462.23 A 35.56 35.56 0 0 0 426.67 426.67" fill="#b8c4f6"/><path d="M 355.56 497.78000000000003 A 35.56 35.56 0 0 1  391.12 462.22 L 355.56 497.78000000000003 A 35.56 35.56 0 0 0 391.12 462.22" fill="#ff6d90"/><path d="M 391.11 497.78000000000003 A 35.56 35.56 0 0 1  426.67 462.22 L 391.11 497.78000000000003 A 35.56 35.56 0 0 0 426.67 462.22" fill="#ffe7ed"/><rect x="426.6666666666667" y="426.6666666666667" width="71.11111111111111" height="71.11111111111111" fill="#ffffff"/><path d="M 426.67 462.23 A 35.56 35.56 0 0 1  462.23 426.67 L 426.67 462.23 A 35.56 35.56 0 0 0 462.23 426.67" fill="#dae1fa"/><path d="M 462.22 426.67 A 35.56 35.56 0 0 1  497.78000000000003 462.23 L 462.22 426.67 A 35.56 35.56 0 0 0 497.78000000000003 462.23" fill="#ffc2d0"/><path d="M 462.22 497.78000000000003 A 35.56 35.56 0 0 1  497.78000000000003 462.22 L 462.22 497.78000000000003 A 35.56 35.56 0 0 0 497.78000000000003 462.22" fill="#ff9bb3"/><rect x="497.7777777777778" y="426.6666666666667" width="71.11111111111111" height="71.11111111111111" fill="#ffffff"/><path d="M 497.78 462.23 A 35.56 35.56 0 0 1  533.3399999999999 426.67 L 497.78 462.23 A 35.56 35.56 0 0 0 533.3399999999999 426.67" fill="#e1e6fb"/><path d="M 533.33 462.23 A 35.56 35.56 0 0 1  568.8900000000001 426.67 L 533.33 462.23 A 35.56 35.56 0 0 0 568.8900000000001 426.67" fill="#ff9ab2"/><path d="M 497.78 497.78000000000003 A 35.56 35.56 0 0 1  533.3399999999999 462.22 L 497.78 497.78000000000003 A 35.56 35.56 0 0 0 533.3399999999999 462.22" fill="#3b5ce6"/><path d="M 533.33 497.78000000000003 A 35.56 35.56 0 0 1  568.8900000000001 462.22 L 533.33 497.78000000000003 A 35.56 35.56 0 0 0 568.8900000000001 462.22" fill="#eaeefc"/><rect x="568.8888888888889" y="426.6666666666667" width="71.11111111111111" height="71.11111111111111" fill="#ffffff"/><path d="M 568.89 462.23 A 35.56 35.56 0 0 1  604.45 426.67 L 568.89 462.23 A 35.56 35.56 0 0 0 604.45 426.67" fill="#6e86ec"/><path d="M 604.44 462.23 A 35.56 35.56 0 0 1  640 426.67 L 604.44 462.23 A 35.56 35.56 0 0 0 640 426.67" fill="#ff5e84"/><path d="M 568.89 462.22 A 35.56 35.56 0 0 1  604.45 497.78000000000003 L 568.89 462.22 A 35.56 35.56 0 0 0 604.45 497.78000000000003" fill="#ffb9ca"/><path d="M 604.44 497.78000000000003 A 35.56 35.56 0 0 1  640 462.22 L 604.44 497.78000000000003 A 35.56 35.56 0 0 0 640 462.22" fill="#5471e9"/><rect x="640" y="426.6666666666667" width="71.11111111111111" height="71.11111111111111" fill="#ffffff"/><path d="M 640 462.23 A 35.56 35.56 0 0 1  675.56 426.67 L 640 462.23 A 35.56 35.56 0 0 0 675.56 426.67" fill="#acbaf4"/><path d="M 675.56 426.67 A 35.56 35.56 0 0 1  711.1199999999999 462.23 L 675.56 426.67 A 35.56 35.56 0 0 0 711.1199999999999 462.23" fill="#6d85ec"/><path d="M 640 462.22 A 35.56 35.56 0 0 1  675.56 497.78000000000003 L 640 462.22 A 35.56 35.56 0 0 0 675.56 497.78000000000003" fill="#ffb4c6"/><path d="M 675.56 497.78000000000003 A 35.56 35.56 0 0 1  711.1199999999999 462.22 L 675.56 497.78000000000003 A 35.56 35.56 0 0 0 711.1199999999999 462.22" fill="#ffbdcc"/><rect x="711.1111111111111" y="426.6666666666667" width="71.11111111111111" height="71.11111111111111" fill="#ffffff"/><path d="M 711.11 462.23 A 35.56 35.56 0 0 1  746.6700000000001 426.67 L 711.11 462.23 A 35.56 35.56 0 0 0 746.6700000000001 426.67" fill="#ffc4d2"/><path d="M 746.67 462.23 A 35.56 35.56 0 0 1  782.23 426.67 L 746.67 462.23 A 35.56 35.56 0 0 0 782.23 426.67" fill="#ffe6ec"/><path d="M 711.11 497.78000000000003 A 35.56 35.56 0 0 1  746.6700000000001 462.22 L 711.11 497.78000000000003 A 35.56 35.56 0 0 0 746.6700000000001 462.22" fill="#2449e3"/><path d="M 746.67 462.22 A 35.56 35.56 0 0 1  782.23 497.78000000000003 L 746.67 462.22 A 35.56 35.56 0 0 0 782.23 497.78000000000003" fill="#889cf0"/><rect x="782.2222222222223" y="426.6666666666667" width="71.11111111111111" height="71.11111111111111" fill="#ffffff"/><path d="M 782.22 426.67 A 35.56 35.56 0 0 1  817.78 462.23 L 782.22 426.67 A 35.56 35.56 0 0 0 817.78 462.23" fill="#ff4571"/><path d="M 782.22 497.78000000000003 A 35.56 35.56 0 0 1  817.78 462.22 L 782.22 497.78000000000003 A 35.56 35.56 0 0 0 817.78 462.22" fill="#7a90ee"/><rect x="853.3333333333334" y="426.6666666666667" width="71.11111111111111" height="71.11111111111111" fill="#ffffff"/><path d="M 853.33 462.23 A 35.56 35.56 0 0 1  888.8900000000001 426.67 L 853.33 462.23 A 35.56 35.56 0 0 0 888.8900000000001 426.67" fill="#879bef"/><path d="M 888.89 426.67 A 35.56 35.56 0 0 1  924.45 462.23 L 888.89 426.67 A 35.56 35.56 0 0 0 924.45 462.23" fill="#6e86ec"/><path d="M 853.33 462.22 A 35.56 35.56 0 0 1  888.8900000000001 497.78000000000003 L 853.33 462.22 A 35.56 35.56 0 0 0 888.8900000000001 497.78000000000003" fill="#ffb0c3"/><path d="M 888.89 462.22 A 35.56 35.56 0 0 1  924.45 497.78000000000003 L 888.89 462.22 A 35.56 35.56 0 0 0 924.45 497.78000000000003" fill="#99aaf2"/><rect x="995.5555555555557" y="426.6666666666667" width="71.11111111111111" height="71.11111111111111" fill="#ffffff"/><path d="M 995.56 462.23 A 35.56 35.56 0 0 1  1031.12 426.67 L 995.56 462.23 A 35.56 35.56 0 0 0 1031.12 426.67" fill="#506ee8"/><path d="M 1031.11 497.78000000000003 A 35.56 35.56 0 0 1  1066.6699999999998 462.22 L 1031.11 497.78000000000003 A 35.56 35.56 0 0 0 1066.6699999999998 462.22" fill="#e2e7fb"/><rect x="1066.6666666666667" y="426.6666666666667" width="71.11111111111111" height="71.11111111111111" fill="#ffffff"/><path d="M 1066.67 462.23 A 35.56 35.56 0 0 1  1102.23 426.67 L 1066.67 462.23 A 35.56 35.56 0 0 0 1102.23 426.67" fill="#8499ef"/><path d="M 1102.22 426.67 A 35.56 35.56 0 0 1  1137.78 462.23 L 1102.22 426.67 A 35.56 35.56 0 0 0 1137.78 462.23" fill="#ffb0c3"/><path d="M 1066.67 462.22 A 35.56 35.56 0 0 1  1102.23 497.78000000000003 L 1066.67 462.22 A 35.56 35.56 0 0 0 1102.23 497.78000000000003" fill="#ffc6d3"/><path d="M 1102.22 462.22 A 35.56 35.56 0 0 1  1137.78 497.78000000000003 L 1102.22 462.22 A 35.56 35.56 0 0 0 1137.78 497.78000000000003" fill="#c5cff7"/><rect x="0" y="497.7777777777778" width="71.11111111111111" height="71.11111111111111" fill="#ffffff"/><path d="M 0 533.3399999999999 A 35.56 35.56 0 0 1  35.56 497.78 L 0 533.3399999999999 A 35.56 35.56 0 0 0 35.56 497.78" fill="#3859e5"/><path d="M 35.56 497.78 A 35.56 35.56 0 0 1  71.12 533.3399999999999 L 35.56 497.78 A 35.56 35.56 0 0 0 71.12 533.3399999999999" fill="#ff6a8d"/><path d="M 0 568.8900000000001 A 35.56 35.56 0 0 1  35.56 533.33 L 0 568.8900000000001 A 35.56 35.56 0 0 0 35.56 533.33" fill="#ffd0db"/><path d="M 35.56 533.33 A 35.56 35.56 0 0 1  71.12 568.8900000000001 L 35.56 533.33 A 35.56 35.56 0 0 0 71.12 568.8900000000001" fill="#fff1f4"/><rect x="71.11111111111111" y="497.7777777777778" width="71.11111111111111" height="71.11111111111111" fill="#ffffff"/><path d="M 71.11 533.3399999999999 A 35.56 35.56 0 0 1  106.67 497.78 L 71.11 533.3399999999999 A 35.56 35.56 0 0 0 106.67 497.78" fill="#fff4f6"/><path d="M 106.67 497.78 A 35.56 35.56 0 0 1  142.23000000000002 533.3399999999999 L 106.67 497.78 A 35.56 35.56 0 0 0 142.23000000000002 533.3399999999999" fill="#ff9cb3"/><path d="M 71.11 568.8900000000001 A 35.56 35.56 0 0 1  106.67 533.33 L 71.11 568.8900000000001 A 35.56 35.56 0 0 0 106.67 533.33" fill="#ff85a2"/><path d="M 106.67 533.33 A 35.56 35.56 0 0 1  142.23000000000002 568.8900000000001 L 106.67 533.33 A 35.56 35.56 0 0 0 142.23000000000002 568.8900000000001" fill="#91a3f1"/><rect x="142.22222222222223" y="497.7777777777778" width="71.11111111111111" height="71.11111111111111" fill="#ffffff"/><path d="M 142.22 533.3399999999999 A 35.56 35.56 0 0 1  177.78 497.78 L 142.22 533.3399999999999 A 35.56 35.56 0 0 0 177.78 497.78" fill="#ffe8ed"/><path d="M 177.78 533.3399999999999 A 35.56 35.56 0 0 1  213.34 497.78 L 177.78 533.3399999999999 A 35.56 35.56 0 0 0 213.34 497.78" fill="#a3b2f3"/><path d="M 177.78 533.33 A 35.56 35.56 0 0 1  213.34 568.8900000000001 L 177.78 533.33 A 35.56 35.56 0 0 0 213.34 568.8900000000001" fill="#e9edfc"/><rect x="213.33333333333334" y="497.7777777777778" width="71.11111111111111" height="71.11111111111111" fill="#ffffff"/><path d="M 213.33 497.78 A 35.56 35.56 0 0 1  248.89000000000001 533.3399999999999 L 213.33 497.78 A 35.56 35.56 0 0 0 248.89000000000001 533.3399999999999" fill="#183fe1"/><path d="M 248.89 497.78 A 35.56 35.56 0 0 1  284.45 533.3399999999999 L 248.89 497.78 A 35.56 35.56 0 0 0 284.45 533.3399999999999" fill="#c1ccf7"/><path d="M 213.33 568.8900000000001 A 35.56 35.56 0 0 1  248.89000000000001 533.33 L 213.33 568.8900000000001 A 35.56 35.56 0 0 0 248.89000000000001 533.33" fill="#c6d0f8"/><path d="M 248.89 533.33 A 35.56 35.56 0 0 1  284.45 568.8900000000001 L 248.89 533.33 A 35.56 35.56 0 0 0 284.45 568.8900000000001" fill="#3c5de6"/><rect x="284.44444444444446" y="497.7777777777778" width="71.11111111111111" height="71.11111111111111" fill="#ffffff"/><path d="M 320 497.78 A 35.56 35.56 0 0 1  355.56 533.3399999999999 L 320 497.78 A 35.56 35.56 0 0 0 355.56 533.3399999999999" fill="#ff6287"/><path d="M 284.44 533.33 A 35.56 35.56 0 0 1  320 568.8900000000001 L 284.44 533.33 A 35.56 35.56 0 0 0 320 568.8900000000001" fill="#f7f8fe"/><path d="M 320 568.8900000000001 A 35.56 35.56 0 0 1  355.56 533.33 L 320 568.8900000000001 A 35.56 35.56 0 0 0 355.56 533.33" fill="#4c6ae8"/><rect x="355.55555555555554" y="497.7777777777778" width="71.11111111111111" height="71.11111111111111" fill="#ffffff"/><path d="M 355.56 533.3399999999999 A 35.56 35.56 0 0 1  391.12 497.78 L 355.56 533.3399999999999 A 35.56 35.56 0 0 0 391.12 497.78" fill="#a7b6f4"/><path d="M 391.11 533.3399999999999 A 35.56 35.56 0 0 1  426.67 497.78 L 391.11 533.3399999999999 A 35.56 35.56 0 0 0 426.67 497.78" fill="#ff92ac"/><path d="M 355.56 533.33 A 35.56 35.56 0 0 1  391.12 568.8900000000001 L 355.56 533.33 A 35.56 35.56 0 0 0 391.12 568.8900000000001" fill="#294ee3"/><path d="M 391.11 568.8900000000001 A 35.56 35.56 0 0 1  426.67 533.33 L 391.11 568.8900000000001 A 35.56 35.56 0 0 0 426.67 533.33" fill="#c8d2f8"/><rect x="426.6666666666667" y="497.7777777777778" width="71.11111111111111" height="71.11111111111111" fill="#ffffff"/><path d="M 426.67 497.78 A 35.56 35.56 0 0 1  462.23 533.3399999999999 L 426.67 497.78 A 35.56 35.56 0 0 0 462.23 533.3399999999999" fill="#ffa6bb"/><path d="M 462.22 533.3399999999999 A 35.56 35.56 0 0 1  497.78000000000003 497.78 L 462.22 533.3399999999999 A 35.56 35.56 0 0 0 497.78000000000003 497.78" fill="#4363e7"/><path d="M 426.67 568.8900000000001 A 35.56 35.56 0 0 1  462.23 533.33 L 426.67 568.8900000000001 A 35.56 35.56 0 0 0 462.23 533.33" fill="#dee4fb"/><path d="M 462.22 533.33 A 35.56 35.56 0 0 1  497.78000000000003 568.8900000000001 L 462.22 533.33 A 35.56 35.56 0 0 0 497.78000000000003 568.8900000000001" fill="#ffe2e9"/><rect x="497.7777777777778" y="497.7777777777778" width="71.11111111111111" height="71.11111111111111" fill="#ffffff"/><path d="M 497.78 497.78 A 35.56 35.56 0 0 1  533.3399999999999 533.3399999999999 L 497.78 497.78 A 35.56 35.56 0 0 0 533.3399999999999 533.3399999999999" fill="#506de8"/><path d="M 533.33 497.78 A 35.56 35.56 0 0 1  568.8900000000001 533.3399999999999 L 533.33 497.78 A 35.56 35.56 0 0 0 568.8900000000001 533.3399999999999" fill="#a7b6f4"/><path d="M 497.78 568.8900000000001 A 35.56 35.56 0 0 1  533.3399999999999 533.33 L 497.78 568.8900000000001 A 35.56 35.56 0 0 0 533.3399999999999 533.33" fill="#3355e4"/><path d="M 533.33 568.8900000000001 A 35.56 35.56 0 0 1  568.8900000000001 533.33 L 533.33 568.8900000000001 A 35.56 35.56 0 0 0 568.8900000000001 533.33" fill="#93a5f1"/><rect x="568.8888888888889" y="497.7777777777778" width="71.11111111111111" height="71.11111111111111" fill="#ffffff"/><path d="M 568.89 533.3399999999999 A 35.56 35.56 0 0 1  604.45 497.78 L 568.89 533.3399999999999 A 35.56 35.56 0 0 0 604.45 497.78" fill="#fff2f5"/><path d="M 604.44 533.3399999999999 A 35.56 35.56 0 0 1  640 497.78 L 604.44 533.3399999999999 A 35.56 35.56 0 0 0 640 497.78" fill="#e5eafc"/><path d="M 568.89 568.8900000000001 A 35.56 35.56 0 0 1  604.45 533.33 L 568.89 568.8900000000001 A 35.56 35.56 0 0 0 604.45 533.33" fill="#657feb"/><path d="M 604.44 568.8900000000001 A 35.56 35.56 0 0 1  640 533.33 L 604.44 568.8900000000001 A 35.56 35.56 0 0 0 640 533.33" fill="#ffbece"/><rect x="640" y="497.7777777777778" width="71.11111111111111" height="71.11111111111111" fill="#ffffff"/><path d="M 640 533.3399999999999 A 35.56 35.56 0 0 1  675.56 497.78 L 640 533.3399999999999 A 35.56 35.56 0 0 0 675.56 497.78" fill="#d3dbf9"/><path d="M 675.56 533.3399999999999 A 35.56 35.56 0 0 1  711.1199999999999 497.78 L 675.56 533.3399999999999 A 35.56 35.56 0 0 0 711.1199999999999 497.78" fill="#c2ccf7"/><path d="M 640 568.8900000000001 A 35.56 35.56 0 0 1  675.56 533.33 L 640 568.8900000000001 A 35.56 35.56 0 0 0 675.56 533.33" fill="#ffa9be"/><path d="M 675.56 533.33 A 35.56 35.56 0 0 1  711.1199999999999 568.8900000000001 L 675.56 533.33 A 35.56 35.56 0 0 0 711.1199999999999 568.8900000000001" fill="#ff4d77"/><rect x="711.1111111111111" y="497.7777777777778" width="71.11111111111111" height="71.11111111111111" fill="#ffffff"/><path d="M 711.11 533.3399999999999 A 35.56 35.56 0 0 1  746.6700000000001 497.78 L 711.11 533.3399999999999 A 35.56 35.56 0 0 0 746.6700000000001 497.78" fill="#3a5be5"/><path d="M 746.67 497.78 A 35.56 35.56 0 0 1  782.23 533.3399999999999 L 746.67 497.78 A 35.56 35.56 0 0 0 782.23 533.3399999999999" fill="#516fe8"/><path d="M 711.11 533.33 A 35.56 35.56 0 0 1  746.6700000000001 568.8900000000001 L 711.11 533.33 A 35.56 35.56 0 0 0 746.6700000000001 568.8900000000001" fill="#ffccd8"/><path d="M 746.67 568.8900000000001 A 35.56 35.56 0 0 1  782.23 533.33 L 746.67 568.8900000000001 A 35.56 35.56 0 0 0 782.23 533.33" fill="#ffd3de"/><rect x="782.2222222222223" y="497.7777777777778" width="71.11111111111111" height="71.11111111111111" fill="#ffffff"/><path d="M 782.22 533.3399999999999 A 35.56 35.56 0 0 1  817.78 497.78 L 782.22 533.3399999999999 A 35.56 35.56 0 0 0 817.78 497.78" fill="#ffc1d0"/><path d="M 817.78 497.78 A 35.56 35.56 0 0 1  853.3399999999999 533.3399999999999 L 817.78 497.78 A 35.56 35.56 0 0 0 853.3399999999999 533.3399999999999" fill="#ff9db5"/><path d="M 782.22 533.33 A 35.56 35.56 0 0 1  817.78 568.8900000000001 L 782.22 533.33 A 35.56 35.56 0 0 0 817.78 568.8900000000001" fill="#ff6c8f"/><path d="M 817.78 568.8900000000001 A 35.56 35.56 0 0 1  853.3399999999999 533.33 L 817.78 568.8900000000001 A 35.56 35.56 0 0 0 853.3399999999999 533.33" fill="#ff7d9c"/><rect x="853.3333333333334" y="497.7777777777778" width="71.11111111111111" height="71.11111111111111" fill="#ffffff"/><path d="M 853.33 497.78 A 35.56 35.56 0 0 1  888.8900000000001 533.3399999999999 L 853.33 497.78 A 35.56 35.56 0 0 0 888.8900000000001 533.3399999999999" fill="#ff6d90"/><path d="M 888.89 533.3399999999999 A 35.56 35.56 0 0 1  924.45 497.78 L 888.89 533.3399999999999 A 35.56 35.56 0 0 0 924.45 497.78" fill="#ff4470"/><path d="M 853.33 533.33 A 35.56 35.56 0 0 1  888.8900000000001 568.8900000000001 L 853.33 533.33 A 35.56 35.56 0 0 0 888.8900000000001 568.8900000000001" fill="#ff6c8f"/><path d="M 888.89 533.33 A 35.56 35.56 0 0 1  924.45 568.8900000000001 L 888.89 533.33 A 35.56 35.56 0 0 0 924.45 568.8900000000001" fill="#c3cef7"/><rect x="924.4444444444445" y="497.7777777777778" width="71.11111111111111" height="71.11111111111111" fill="#ffffff"/><path d="M 924.44 497.78 A 35.56 35.56 0 0 1  960 533.3399999999999 L 924.44 497.78 A 35.56 35.56 0 0 0 960 533.3399999999999" fill="#ffbece"/><path d="M 960 533.3399999999999 A 35.56 35.56 0 0 1  995.56 497.78 L 960 533.3399999999999 A 35.56 35.56 0 0 0 995.56 497.78" fill="#abb9f4"/><path d="M 924.44 568.8900000000001 A 35.56 35.56 0 0 1  960 533.33 L 924.44 568.8900000000001 A 35.56 35.56 0 0 0 960 533.33" fill="#ffdde5"/><path d="M 960 568.8900000000001 A 35.56 35.56 0 0 1  995.56 533.33 L 960 568.8900000000001 A 35.56 35.56 0 0 0 995.56 533.33" fill="#ff567e"/><rect x="995.5555555555557" y="497.7777777777778" width="71.11111111111111" height="71.11111111111111" fill="#ffffff"/><path d="M 995.56 533.3399999999999 A 35.56 35.56 0 0 1  1031.12 497.78 L 995.56 533.3399999999999 A 35.56 35.56 0 0 0 1031.12 497.78" fill="#ff5981"/><path d="M 1031.11 533.3399999999999 A 35.56 35.56 0 0 1  1066.6699999999998 497.78 L 1031.11 533.3399999999999 A 35.56 35.56 0 0 0 1066.6699999999998 497.78" fill="#4b6ae8"/><path d="M 1031.11 533.33 A 35.56 35.56 0 0 1  1066.6699999999998 568.8900000000001 L 1031.11 533.33 A 35.56 35.56 0 0 0 1066.6699999999998 568.8900000000001" fill="#ff94ad"/><rect x="1066.6666666666667" y="497.7777777777778" width="71.11111111111111" height="71.11111111111111" fill="#ffffff"/><path d="M 1066.67 497.78 A 35.56 35.56 0 0 1  1102.23 533.3399999999999 L 1066.67 497.78 A 35.56 35.56 0 0 0 1102.23 533.3399999999999" fill="#ffa8bc"/><path d="M 1102.22 533.3399999999999 A 35.56 35.56 0 0 1  1137.78 497.78 L 1102.22 533.3399999999999 A 35.56 35.56 0 0 0 1137.78 497.78" fill="#ff6086"/><path d="M 1066.67 533.33 A 35.56 35.56 0 0 1  1102.23 568.8900000000001 L 1066.67 533.33 A 35.56 35.56 0 0 0 1102.23 568.8900000000001" fill="#2d51e4"/><path d="M 1102.22 533.33 A 35.56 35.56 0 0 1  1137.78 568.8900000000001 L 1102.22 533.33 A 35.56 35.56 0 0 0 1137.78 568.8900000000001" fill="#617bea"/><rect x="0" y="568.8888888888889" width="71.11111111111111" height="71.11111111111111" fill="#ffffff"/><path d="M 0 568.89 A 35.56 35.56 0 0 1  35.56 604.45 L 0 568.89 A 35.56 35.56 0 0 0 35.56 604.45" fill="#ffcfda"/><path d="M 35.56 568.89 A 35.56 35.56 0 0 1  71.12 604.45 L 35.56 568.89 A 35.56 35.56 0 0 0 71.12 604.45" fill="#f4f6fe"/><path d="M 0 604.44 A 35.56 35.56 0 0 1  35.56 640 L 0 604.44 A 35.56 35.56 0 0 0 35.56 640" fill="#ffbdcd"/><path d="M 35.56 640 A 35.56 35.56 0 0 1  71.12 604.44 L 35.56 640 A 35.56 35.56 0 0 0 71.12 604.44" fill="#fff2f5"/><rect x="71.11111111111111" y="568.8888888888889" width="71.11111111111111" height="71.11111111111111" fill="#ffffff"/><path d="M 71.11 604.45 A 35.56 35.56 0 0 1  106.67 568.89 L 71.11 604.45 A 35.56 35.56 0 0 0 106.67 568.89" fill="#ff4f79"/><path d="M 106.67 568.89 A 35.56 35.56 0 0 1  142.23000000000002 604.45 L 106.67 568.89 A 35.56 35.56 0 0 0 142.23000000000002 604.45" fill="#2e52e4"/><path d="M 71.11 604.44 A 35.56 35.56 0 0 1  106.67 640 L 71.11 604.44 A 35.56 35.56 0 0 0 106.67 640" fill="#ffdce4"/><path d="M 106.67 640 A 35.56 35.56 0 0 1  142.23000000000002 604.44 L 106.67 640 A 35.56 35.56 0 0 0 142.23000000000002 604.44" fill="#ff98b1"/><rect x="142.22222222222223" y="568.8888888888889" width="71.11111111111111" height="71.11111111111111" fill="#ffffff"/><path d="M 142.22 568.89 A 35.56 35.56 0 0 1  177.78 604.45 L 142.22 568.89 A 35.56 35.56 0 0 0 177.78 604.45" fill="#92a4f1"/><path d="M 177.78 568.89 A 35.56 35.56 0 0 1  213.34 604.45 L 177.78 568.89 A 35.56 35.56 0 0 0 213.34 604.45" fill="#c8d1f8"/><path d="M 142.22 604.44 A 35.56 35.56 0 0 1  177.78 640 L 142.22 604.44 A 35.56 35.56 0 0 0 177.78 640" fill="#ff7a9a"/><path d="M 177.78 604.44 A 35.56 35.56 0 0 1  213.34 640 L 177.78 604.44 A 35.56 35.56 0 0 0 213.34 640" fill="#fff1f4"/><rect x="213.33333333333334" y="568.8888888888889" width="71.11111111111111" height="71.11111111111111" fill="#ffffff"/><path d="M 213.33 568.89 A 35.56 35.56 0 0 1  248.89000000000001 604.45 L 213.33 568.89 A 35.56 35.56 0 0 0 248.89000000000001 604.45" fill="#ff668b"/><path d="M 248.89 604.45 A 35.56 35.56 0 0 1  284.45 568.89 L 248.89 604.45 A 35.56 35.56 0 0 0 284.45 568.89" fill="#ffc2d1"/><path d="M 213.33 640 A 35.56 35.56 0 0 1  248.89000000000001 604.44 L 213.33 640 A 35.56 35.56 0 0 0 248.89000000000001 604.44" fill="#ff7394"/><path d="M 248.89 604.44 A 35.56 35.56 0 0 1  284.45 640 L 248.89 604.44 A 35.56 35.56 0 0 0 284.45 640" fill="#ffe1e8"/><rect x="284.44444444444446" y="568.8888888888889" width="71.11111111111111" height="71.11111111111111" fill="#ffffff"/><path d="M 284.44 568.89 A 35.56 35.56 0 0 1  320 604.45 L 284.44 568.89 A 35.56 35.56 0 0 0 320 604.45" fill="#ffedf1"/><path d="M 320 604.45 A 35.56 35.56 0 0 1  355.56 568.89 L 320 604.45 A 35.56 35.56 0 0 0 355.56 568.89" fill="#ffd7e0"/><path d="M 284.44 604.44 A 35.56 35.56 0 0 1  320 640 L 284.44 604.44 A 35.56 35.56 0 0 0 320 640" fill="#ff7697"/><path d="M 320 640 A 35.56 35.56 0 0 1  355.56 604.44 L 320 640 A 35.56 35.56 0 0 0 355.56 604.44" fill="#ff6e91"/><rect x="355.55555555555554" y="568.8888888888889" width="71.11111111111111" height="71.11111111111111" fill="#ffffff"/><path d="M 355.56 568.89 A 35.56 35.56 0 0 1  391.12 604.45 L 355.56 568.89 A 35.56 35.56 0 0 0 391.12 604.45" fill="#ff5f85"/><path d="M 391.11 604.45 A 35.56 35.56 0 0 1  426.67 568.89 L 391.11 604.45 A 35.56 35.56 0 0 0 426.67 568.89" fill="#5673e9"/><path d="M 355.56 640 A 35.56 35.56 0 0 1  391.12 604.44 L 355.56 640 A 35.56 35.56 0 0 0 391.12 604.44" fill="#dce2fa"/><path d="M 391.11 604.44 A 35.56 35.56 0 0 1  426.67 640 L 391.11 604.44 A 35.56 35.56 0 0 0 426.67 640" fill="#ff6287"/><rect x="426.6666666666667" y="568.8888888888889" width="71.11111111111111" height="71.11111111111111" fill="#ffffff"/><path d="M 426.67 568.89 A 35.56 35.56 0 0 1  462.23 604.45 L 426.67 568.89 A 35.56 35.56 0 0 0 462.23 604.45" fill="#ff4b76"/><path d="M 462.22 604.45 A 35.56 35.56 0 0 1  497.78000000000003 568.89 L 462.22 604.45 A 35.56 35.56 0 0 0 497.78000000000003 568.89" fill="#fcfdff"/><path d="M 426.67 604.44 A 35.56 35.56 0 0 1  462.23 640 L 426.67 604.44 A 35.56 35.56 0 0 0 462.23 640" fill="#ffced9"/><path d="M 462.22 604.44 A 35.56 35.56 0 0 1  497.78000000000003 640 L 462.22 604.44 A 35.56 35.56 0 0 0 497.78000000000003 640" fill="#ff5981"/><rect x="497.7777777777778" y="568.8888888888889" width="71.11111111111111" height="71.11111111111111" fill="#ffffff"/><path d="M 497.78 568.89 A 35.56 35.56 0 0 1  533.3399999999999 604.45 L 497.78 568.89 A 35.56 35.56 0 0 0 533.3399999999999 604.45" fill="#ff517a"/><path d="M 533.33 604.45 A 35.56 35.56 0 0 1  568.8900000000001 568.89 L 533.33 604.45 A 35.56 35.56 0 0 0 568.8900000000001 568.89" fill="#b6c2f6"/><path d="M 497.78 640 A 35.56 35.56 0 0 1  533.3399999999999 604.44 L 497.78 640 A 35.56 35.56 0 0 0 533.3399999999999 604.44" fill="#ff547c"/><path d="M 533.33 640 A 35.56 35.56 0 0 1  568.8900000000001 604.44 L 533.33 640 A 35.56 35.56 0 0 0 568.8900000000001 604.44" fill="#ffc3d1"/><rect x="568.8888888888889" y="568.8888888888889" width="71.11111111111111" height="71.11111111111111" fill="#ffffff"/><path d="M 568.89 568.89 A 35.56 35.56 0 0 1  604.45 604.45 L 568.89 568.89 A 35.56 35.56 0 0 0 604.45 604.45" fill="#ff4a75"/><path d="M 604.44 568.89 A 35.56 35.56 0 0 1  640 604.45 L 604.44 568.89 A 35.56 35.56 0 0 0 640 604.45" fill="#ff6c8f"/><path d="M 568.89 604.44 A 35.56 35.56 0 0 1  604.45 640 L 568.89 604.44 A 35.56 35.56 0 0 0 604.45 640" fill="#5270e9"/><path d="M 604.44 640 A 35.56 35.56 0 0 1  640 604.44 L 604.44 640 A 35.56 35.56 0 0 0 640 604.44" fill="#ff688c"/><rect x="640" y="568.8888888888889" width="71.11111111111111" height="71.11111111111111" fill="#ffffff"/><path d="M 640 604.45 A 35.56 35.56 0 0 1  675.56 568.89 L 640 604.45 A 35.56 35.56 0 0 0 675.56 568.89" fill="#5d78ea"/><path d="M 675.56 604.45 A 35.56 35.56 0 0 1  711.1199999999999 568.89 L 675.56 604.45 A 35.56 35.56 0 0 0 711.1199999999999 568.89" fill="#dce2fb"/><path d="M 640 640 A 35.56 35.56 0 0 1  675.56 604.44 L 640 640 A 35.56 35.56 0 0 0 675.56 604.44" fill="#ff3666"/><path d="M 675.56 640 A 35.56 35.56 0 0 1  711.1199999999999 604.44 L 675.56 640 A 35.56 35.56 0 0 0 711.1199999999999 604.44" fill="#8599ef"/><rect x="711.1111111111111" y="568.8888888888889" width="71.11111111111111" height="71.11111111111111" fill="#ffffff"/><path d="M 711.11 604.45 A 35.56 35.56 0 0 1  746.6700000000001 568.89 L 711.11 604.45 A 35.56 35.56 0 0 0 746.6700000000001 568.89" fill="#5874e9"/><path d="M 746.67 568.89 A 35.56 35.56 0 0 1  782.23 604.45 L 746.67 568.89 A 35.56 35.56 0 0 0 782.23 604.45" fill="#c1cbf7"/><path d="M 711.11 640 A 35.56 35.56 0 0 1  746.6700000000001 604.44 L 711.11 640 A 35.56 35.56 0 0 0 746.6700000000001 604.44" fill="#ff819f"/><path d="M 746.67 640 A 35.56 35.56 0 0 1  782.23 604.44 L 746.67 640 A 35.56 35.56 0 0 0 782.23 604.44" fill="#ffeef2"/><rect x="782.2222222222223" y="568.8888888888889" width="71.11111111111111" height="71.11111111111111" fill="#ffffff"/><path d="M 782.22 568.89 A 35.56 35.56 0 0 1  817.78 604.45 L 782.22 568.89 A 35.56 35.56 0 0 0 817.78 604.45" fill="#ff92ac"/><path d="M 817.78 568.89 A 35.56 35.56 0 0 1  853.3399999999999 604.45 L 817.78 568.89 A 35.56 35.56 0 0 0 853.3399999999999 604.45" fill="#ff5980"/><path d="M 782.22 640 A 35.56 35.56 0 0 1  817.78 604.44 L 782.22 640 A 35.56 35.56 0 0 0 817.78 604.44" fill="#4c6ae8"/><path d="M 817.78 604.44 A 35.56 35.56 0 0 1  853.3399999999999 640 L 817.78 604.44 A 35.56 35.56 0 0 0 853.3399999999999 640" fill="#c0cbf7"/><rect x="853.3333333333334" y="568.8888888888889" width="71.11111111111111" height="71.11111111111111" fill="#ffffff"/><path d="M 853.33 568.89 A 35.56 35.56 0 0 1  888.8900000000001 604.45 L 853.33 568.89 A 35.56 35.56 0 0 0 888.8900000000001 604.45" fill="#ff809e"/><path d="M 888.89 604.45 A 35.56 35.56 0 0 1  924.45 568.89 L 888.89 604.45 A 35.56 35.56 0 0 0 924.45 568.89" fill="#ffd1dc"/><path d="M 853.33 604.44 A 35.56 35.56 0 0 1  888.8900000000001 640 L 853.33 604.44 A 35.56 35.56 0 0 0 888.8900000000001 640" fill="#ff7395"/><path d="M 888.89 604.44 A 35.56 35.56 0 0 1  924.45 640 L 888.89 604.44 A 35.56 35.56 0 0 0 924.45 640" fill="#8c9ff0"/><rect x="924.4444444444445" y="568.8888888888889" width="71.11111111111111" height="71.11111111111111" fill="#ffffff"/><path d="M 924.44 568.89 A 35.56 35.56 0 0 1  960 604.45 L 924.44 568.89 A 35.56 35.56 0 0 0 960 604.45" fill="#fcfdff"/><path d="M 960 604.45 A 35.56 35.56 0 0 1  995.56 568.89 L 960 604.45 A 35.56 35.56 0 0 0 995.56 568.89" fill="#ffa7bc"/><path d="M 924.44 604.44 A 35.56 35.56 0 0 1  960 640 L 924.44 604.44 A 35.56 35.56 0 0 0 960 640" fill="#4766e7"/><path d="M 960 604.44 A 35.56 35.56 0 0 1  995.56 640 L 960 604.44 A 35.56 35.56 0 0 0 995.56 640" fill="#8096ef"/><rect x="995.5555555555557" y="568.8888888888889" width="71.11111111111111" height="71.11111111111111" fill="#ffffff"/><path d="M 995.56 604.45 A 35.56 35.56 0 0 1  1031.12 568.89 L 995.56 604.45 A 35.56 35.56 0 0 0 1031.12 568.89" fill="#ff6489"/><path d="M 1031.11 568.89 A 35.56 35.56 0 0 1  1066.6699999999998 604.45 L 1031.11 568.89 A 35.56 35.56 0 0 0 1066.6699999999998 604.45" fill="#ffa1b8"/><path d="M 995.56 604.44 A 35.56 35.56 0 0 1  1031.12 640 L 995.56 604.44 A 35.56 35.56 0 0 0 1031.12 640" fill="#c4cef7"/><path d="M 1031.11 604.44 A 35.56 35.56 0 0 1  1066.6699999999998 640 L 1031.11 604.44 A 35.56 35.56 0 0 0 1066.6699999999998 640" fill="#fffafc"/><rect x="1066.6666666666667" y="568.8888888888889" width="71.11111111111111" height="71.11111111111111" fill="#ffffff"/><path d="M 1066.67 604.45 A 35.56 35.56 0 0 1  1102.23 568.89 L 1066.67 604.45 A 35.56 35.56 0 0 0 1102.23 568.89" fill="#ff4975"/><path d="M 1102.22 568.89 A 35.56 35.56 0 0 1  1137.78 604.45 L 1102.22 568.89 A 35.56 35.56 0 0 0 1137.78 604.45" fill="#ffb1c3"/><path d="M 1066.67 604.44 A 35.56 35.56 0 0 1  1102.23 640 L 1066.67 604.44 A 35.56 35.56 0 0 0 1102.23 640" fill="#9cadf2"/><path d="M 1102.22 604.44 A 35.56 35.56 0 0 1  1137.78 640 L 1102.22 604.44 A 35.56 35.56 0 0 0 1137.78 640" fill="#ff97b0"/></g></svg>